<svg xmlns="http://www.w3.org/2000/svg" xmlns:xlink="http://www.w3.org/1999/xlink" version="1.1" width="256" height="256" viewBox="0 0 256 256" xml:space="preserve">
<g style="stroke: none; stroke-width: 0; stroke-dasharray: none; stroke-linecap: butt; stroke-linejoin: miter; stroke-miterlimit: 10; fill: none; fill-rule: nonzero; opacity: 1;" transform="translate(1.4065934065934016 1.4065934065934016) scale(2.81 2.81)">
	<path d="M 69.733 38.885 c -0.35 0 -0.672 -0.205 -0.842 -0.534 c -0.075 -0.145 -0.152 -0.287 -0.235 -0.431 c -0.082 -0.141 -0.166 -0.28 -0.253 -0.415 c -0.2 -0.313 -0.216 -0.694 -0.041 -0.997 c 0.808 -1.4 0.326 -3.197 -1.073 -4.005 l -2.56 -1.477 c -0.678 -0.392 -1.472 -0.496 -2.225 -0.293 c -0.757 0.203 -1.389 0.688 -1.781 1.367 c -0.175 0.302 -0.483 0.466 -0.851 0.462 c -0.346 -0.017 -0.692 -0.018 -1.044 -0.001 c -0.35 0.024 -0.673 -0.16 -0.848 -0.463 c -0.809 -1.4 -2.608 -1.88 -4.006 -1.073 l -2.559 1.478 c -0.679 0.392 -1.164 1.024 -1.366 1.781 c -0.203 0.757 -0.099 1.547 0.293 2.225 c 0.175 0.302 0.165 0.673 -0.022 0.964 c -0.189 0.294 -0.363 0.596 -0.522 0.905 c -0.16 0.313 -0.478 0.506 -0.827 0.506 c -1.616 0 -2.932 1.315 -2.932 2.932 v 2.955 c 0 1.617 1.315 2.932 2.932 2.932 c 0.35 0 0.672 0.204 0.843 0.536 c 0.074 0.142 0.151 0.282 0.234 0.428 c 0.082 0.141 0.166 0.28 0.253 0.414 c 0.2 0.313 0.217 0.696 0.043 0.997 c -0.393 0.679 -0.497 1.469 -0.294 2.226 c 0.202 0.757 0.688 1.389 1.366 1.78 l 2.559 1.478 c 1.399 0.808 3.196 0.325 4.006 -1.074 c 0.175 -0.303 0.5 -0.483 0.851 -0.462 c 0.347 0.019 0.695 0.019 1.044 0 c 0.348 -0.021 0.674 0.16 0.849 0.463 c 0.392 0.678 1.023 1.163 1.78 1.366 c 0.253 0.067 0.509 0.101 0.764 0.101 c 0.508 0 1.009 -0.133 1.461 -0.394 l 2.56 -1.478 c 0.679 -0.392 1.163 -1.024 1.366 -1.78 c 0.202 -0.757 0.098 -1.547 -0.294 -2.227 c -0.175 -0.301 -0.165 -0.67 0.025 -0.966 c 0.188 -0.293 0.36 -0.593 0.521 -0.903 c 0.16 -0.312 0.477 -0.505 0.826 -0.505 c 1.617 0 2.933 -1.315 2.933 -2.932 v -2.955 C 72.666 40.2 71.351 38.885 69.733 38.885 z M 70.666 44.772 c 0 0.514 -0.419 0.932 -0.934 0.932 c -1.103 0 -2.101 0.61 -2.604 1.591 c -0.13 0.252 -0.271 0.497 -0.425 0.735 c -0.598 0.928 -0.626 2.097 -0.074 3.05 c 0.125 0.216 0.157 0.467 0.093 0.707 s -0.218 0.441 -0.434 0.565 l -2.56 1.478 c -0.445 0.257 -1.016 0.104 -1.273 -0.343 c -0.552 -0.953 -1.56 -1.501 -2.679 -1.459 c -0.282 0.015 -0.565 0.015 -0.847 0 c -1.114 -0.043 -2.132 0.507 -2.681 1.46 c -0.258 0.443 -0.828 0.602 -1.274 0.342 l -2.56 -1.478 c -0.215 -0.124 -0.369 -0.325 -0.434 -0.565 s -0.031 -0.491 0.094 -0.707 c 0.549 -0.953 0.515 -2.132 -0.092 -3.078 c -0.07 -0.11 -0.139 -0.223 -0.202 -0.333 c -0.066 -0.115 -0.132 -0.232 -0.191 -0.348 c -0.515 -0.998 -1.518 -1.617 -2.619 -1.617 c -0.514 0 -0.932 -0.418 -0.932 -0.932 v -2.955 c 0 -0.514 0.418 -0.932 0.933 -0.932 c 1.103 0 2.101 -0.61 2.605 -1.592 c 0.128 -0.25 0.269 -0.495 0.424 -0.734 c 0.596 -0.927 0.624 -2.095 0.073 -3.05 c -0.124 -0.215 -0.157 -0.466 -0.093 -0.707 c 0.064 -0.241 0.219 -0.441 0.435 -0.566 l 2.559 -1.478 c 0.146 -0.084 0.306 -0.125 0.464 -0.125 c 0.322 0 0.637 0.167 0.81 0.466 c 0.552 0.954 1.559 1.502 2.677 1.46 c 0.283 -0.015 0.567 -0.015 0.849 0 c 1.122 0.051 2.131 -0.506 2.683 -1.461 c 0.124 -0.215 0.325 -0.37 0.565 -0.434 s 0.491 -0.031 0.707 0.094 l 2.56 1.477 c 0.444 0.257 0.598 0.829 0.341 1.273 c -0.55 0.953 -0.516 2.132 0.091 3.077 c 0.07 0.11 0.139 0.224 0.204 0.337 c 0.066 0.115 0.13 0.23 0.189 0.346 c 0.515 0.997 1.519 1.616 2.619 1.616 c 0.515 0 0.933 0.418 0.933 0.932 V 44.772 z" style="stroke: none; stroke-width: 1; stroke-dasharray: none; stroke-linecap: butt; stroke-linejoin: miter; stroke-miterlimit: 10; fill: rgb(238,122,35); fill-rule: nonzero; opacity: 1;" transform=" matrix(1 0 0 1 0 0) " stroke-linecap="round"/>
	<path d="M 59.353 37.851 c -3.002 0 -5.443 2.442 -5.443 5.444 c 0 3.001 2.441 5.444 5.443 5.444 s 5.444 -2.442 5.444 -5.444 C 64.797 40.292 62.354 37.851 59.353 37.851 z M 59.353 46.738 c -1.898 0 -3.443 -1.545 -3.443 -3.444 s 1.545 -3.444 3.443 -3.444 c 1.899 0 3.444 1.545 3.444 3.444 S 61.252 46.738 59.353 46.738 z" style="stroke: none; stroke-width: 1; stroke-dasharray: none; stroke-linecap: butt; stroke-linejoin: miter; stroke-miterlimit: 10; fill: rgb(238,122,35); fill-rule: nonzero; opacity: 1;" transform=" matrix(1 0 0 1 0 0) " stroke-linecap="round"/>
	<path d="M 42.03 42.294 H 28.323 v -4.329 c 0 -0.552 -0.448 -1 -1 -1 s -1 0.448 -1 1 v 5.329 c 0 0.552 0.448 1 1 1 H 42.03 c 0.552 0 1 -0.448 1 -1 S 42.583 42.294 42.03 42.294 z" style="stroke: none; stroke-width: 1; stroke-dasharray: none; stroke-linecap: butt; stroke-linejoin: miter; stroke-miterlimit: 10; fill: rgb(238,122,35); fill-rule: nonzero; opacity: 1;" transform=" matrix(1 0 0 1 0 0) " stroke-linecap="round"/>
	<path d="M 42.03 47.413 H 18.334 c -0.552 0 -1 0.447 -1 1 v 6.543 c 0 0.553 0.448 1 1 1 s 1 -0.447 1 -1 v -5.543 H 42.03 c 0.552 0 1 -0.447 1 -1 S 42.583 47.413 42.03 47.413 z" style="stroke: none; stroke-width: 1; stroke-dasharray: none; stroke-linecap: butt; stroke-linejoin: miter; stroke-miterlimit: 10; fill: rgb(238,122,35); fill-rule: nonzero; opacity: 1;" transform=" matrix(1 0 0 1 0 0) " stroke-linecap="round"/>
	<path d="M 42.03 36.966 h -4.644 c -0.552 0 -1 0.448 -1 1 s 0.448 1 1 1 h 4.644 c 0.552 0 1 -0.448 1 -1 S 42.583 36.966 42.03 36.966 z" style="stroke: none; stroke-width: 1; stroke-dasharray: none; stroke-linecap: butt; stroke-linejoin: miter; stroke-miterlimit: 10; fill: rgb(238,122,35); fill-rule: nonzero; opacity: 1;" transform=" matrix(1 0 0 1 0 0) " stroke-linecap="round"/>
	<path d="M 47.074 6.774 h 11.811 c 0.553 0 1 -0.448 1 -1 s -0.447 -1 -1 -1 H 47.074 c -0.553 0 -1 0.448 -1 1 S 46.521 6.774 47.074 6.774 z" style="stroke: none; stroke-width: 1; stroke-dasharray: none; stroke-linecap: butt; stroke-linejoin: miter; stroke-miterlimit: 10; fill: rgb(238,122,35); fill-rule: nonzero; opacity: 1;" transform=" matrix(1 0 0 1 0 0) " stroke-linecap="round"/>
	<path d="M 67.08 4.774 h -3.736 c -0.553 0 -1 0.448 -1 1 s 0.447 1 1 1 h 3.736 c 0.553 0 1 -0.448 1 -1 S 67.633 4.774 67.08 4.774 z" style="stroke: none; stroke-width: 1; stroke-dasharray: none; stroke-linecap: butt; stroke-linejoin: miter; stroke-miterlimit: 10; fill: rgb(238,122,35); fill-rule: nonzero; opacity: 1;" transform=" matrix(1 0 0 1 0 0) " stroke-linecap="round"/>
	<path d="M 67.08 9.884 H 47.074 c -0.553 0 -1 0.448 -1 1 s 0.447 1 1 1 H 67.08 c 0.553 0 1 -0.448 1 -1 S 67.633 9.884 67.08 9.884 z" style="stroke: none; stroke-width: 1; stroke-dasharray: none; stroke-linecap: butt; stroke-linejoin: miter; stroke-miterlimit: 10; fill: rgb(238,122,35); fill-rule: nonzero; opacity: 1;" transform=" matrix(1 0 0 1 0 0) " stroke-linecap="round"/>
	<path d="M 57.189 14.994 H 47.074 c -0.553 0 -1 0.448 -1 1 s 0.447 1 1 1 h 10.115 c 0.553 0 1 -0.448 1 -1 S 57.742 14.994 57.189 14.994 z" style="stroke: none; stroke-width: 1; stroke-dasharray: none; stroke-linecap: butt; stroke-linejoin: miter; stroke-miterlimit: 10; fill: rgb(238,122,35); fill-rule: nonzero; opacity: 1;" transform=" matrix(1 0 0 1 0 0) " stroke-linecap="round"/>
	<path d="M 59.353 29.61 c 0.553 0 1 -0.448 1 -1 v -3.749 c 0 -0.552 -0.447 -1 -1 -1 s -1 0.448 -1 1 v 3.749 C 58.353 29.162 58.8 29.61 59.353 29.61 z" style="stroke: none; stroke-width: 1; stroke-dasharray: none; stroke-linecap: butt; stroke-linejoin: miter; stroke-miterlimit: 10; fill: rgb(238,122,35); fill-rule: nonzero; opacity: 1;" transform=" matrix(1 0 0 1 0 0) " stroke-linecap="round"/>
	<path d="M 76.262 19.97 h -3.408 V 1 c 0 -0.552 -0.447 -1 -1 -1 H 42.525 c -0.552 0 -1 0.448 -1 1 v 18.97 h -5.207 c 0.646 -1.335 0.993 -2.814 0.993 -4.35 c 0 -2.747 -1.149 -5.401 -3.152 -7.282 C 32.128 6.43 29.468 5.48 26.68 5.651 c -4.963 0.312 -8.97 4.287 -9.32 9.246 c -0.126 1.778 0.238 3.518 0.991 5.073 h -4.613 c -1.878 0 -3.406 1.528 -3.406 3.405 v 36.604 v 9.992 c 0 1.878 1.528 3.406 3.406 3.406 h 20.34 l -1.53 8.923 h -4.882 c -0.552 0 -1 0.447 -1 1 V 89 c 0 0.553 0.448 1 1 1 h 34.669 c 0.553 0 1 -0.447 1 -1 v -5.699 c 0 -0.553 -0.447 -1 -1 -1 h -4.883 l -1.53 -8.923 h 20.34 c 1.878 0 3.405 -1.528 3.405 -3.406 v -9.992 V 23.375 C 79.667 21.498 78.14 19.97 76.262 19.97 z M 43.525 2 h 27.328 v 17.97 H 43.525 V 2 z M 19.355 15.038 c 0.28 -3.964 3.482 -7.141 7.45 -7.39 c 2.23 -0.139 4.361 0.623 5.985 2.148 c 1.626 1.527 2.521 3.595 2.521 5.824 c 0 1.74 -0.563 3.383 -1.569 4.74 c -0.004 0.006 -0.012 0.008 -0.016 0.013 c -0.453 0.609 -0.96 1.133 -1.506 1.558 c -0.159 0.123 -0.31 0.254 -0.455 0.392 c -1.011 0.965 -1.668 2.275 -1.849 3.676 h -5.189 c -0.207 -1.601 -1.041 -3.068 -2.358 -4.111 c -0.529 -0.419 -1.019 -0.928 -1.454 -1.514 c -0.001 -0.001 -0.003 -0.002 -0.004 -0.003 C 19.79 18.853 19.219 16.97 19.355 15.038 z M 24.831 29.257 c -0.019 -0.004 -0.034 -0.016 -0.053 -0.02 v -1.24 h 5.088 v 1.24 c -0.019 0.003 -0.034 0.015 -0.053 0.019 c -0.466 0.085 -0.826 0.474 -0.826 0.965 v 1.971 c 0 0.269 -0.219 0.488 -0.488 0.488 h -2.354 c -0.269 0 -0.488 -0.219 -0.488 -0.488 v -1.971 C 25.657 29.731 25.297 29.342 24.831 29.257 z M 12.333 23.375 c 0 -0.775 0.631 -1.405 1.406 -1.405 h 5.888 c 0.059 0.072 0.125 0.134 0.185 0.203 c 0.162 0.185 0.321 0.372 0.497 0.546 c 0.263 0.263 0.536 0.51 0.82 0.735 c 1.048 0.83 1.65 2.043 1.65 3.329 v 0.214 V 29.4 c 0 0.658 0.354 1.231 0.879 1.551 v 1.242 c 0 1.372 1.116 2.488 2.488 2.488 H 28.5 c 1.372 0 2.488 -1.116 2.488 -2.488 v -1.242 c 0.525 -0.32 0.879 -0.893 0.879 -1.551 v -2.402 v -0.215 c 0 -1.281 0.591 -2.505 1.581 -3.273 c 0.591 -0.46 1.119 -0.978 1.583 -1.54 h 7.495 h 29.328 h 4.408 c 0.774 0 1.405 0.63 1.405 1.405 v 35.604 H 12.333 V 23.375 z M 61.335 88 H 28.666 v -3.699 h 4.726 h 23.218 h 4.726 V 88 z M 55.423 82.301 H 34.577 l 1.53 -8.923 h 17.786 L 55.423 82.301 z M 77.667 69.972 c 0 0.775 -0.631 1.406 -1.405 1.406 H 54.736 H 35.264 H 13.738 c -0.775 0 -1.406 -0.631 -1.406 -1.406 v -8.992 h 65.334 V 69.972 z" style="stroke: none; stroke-width: 1; stroke-dasharray: none; stroke-linecap: butt; stroke-linejoin: miter; stroke-miterlimit: 10; fill: rgb(238,122,35); fill-rule: nonzero; opacity: 1;" transform=" matrix(1 0 0 1 0 0) " stroke-linecap="round"/>
</g>
</svg>