<svg xmlns="http://www.w3.org/2000/svg" viewBox="0 0 40 40">
  <circle cx="20" cy="20" r="20" fill="#EE7A23"/>
  <path fill="white" d="M20 8c-3.26 0-3.67.014-4.95.072-1.28.058-2.15.262-2.91.559-.79.307-1.46.717-2.13 1.387-.67.67-1.08 1.34-1.387 2.129-.297.76-.5 1.631-.559 2.91C8.012 16.33 8 16.74 8 20s.014 3.67.072 4.95c.058 1.28.262 2.15.559 2.91.307.79.717 1.459 1.387 2.129.67.67 1.34 1.08 2.13 1.387.76.297 1.631.5 2.91.559 1.28.058 1.69.072 4.95.072s3.67-.014 4.95-.072c1.28-.058 2.15-.262 2.91-.559.79-.307 1.459-.717 2.129-1.387.67-.67 1.08-1.34 1.387-2.13.297-.76.5-1.63.559-2.91.058-1.28.072-1.69.072-4.95s-.014-3.67-.072-4.95c-.058-1.28-.262-2.15-.559-2.91-.307-.79-.717-1.459-1.387-2.13-.67-.67-1.34-1.08-2.13-1.387-.76-.297-1.63-.5-2.91-.559C23.67 8.012 23.26 8 20 8zm0 2.162c3.204 0 3.584.012 4.85.07 1.17.054 1.805.249 2.229.413.56.218.96.478 1.381.898.42.42.68.82.898 1.381.164.424.359 1.06.413 2.229.058 1.266.07 1.646.07 4.849s-.012 3.584-.07 4.85c-.054 1.17-.249 1.805-.413 2.229-.218.56-.478.96-.898 1.38-.42.42-.82.68-1.381.898-.424.164-1.06.359-2.229.413-1.266.058-1.646.07-4.85.07-3.204 0-3.584-.012-4.85-.07-1.17-.054-1.805-.249-2.229-.413-.56-.218-.96-.478-1.381-.898-.42-.42-.68-.82-.898-1.381-.164-.424-.359-1.06-.413-2.229-.058-1.266-.07-1.646-.07-4.85s.012-3.584.07-4.85c.054-1.17.249-1.805.413-2.229.218-.56.478-.96.898-1.381.42-.42.82-.68 1.381-.898.424-.164 1.06-.359 2.229-.413 1.266-.058 1.646-.07 4.85-.07zm0 13.838c-2.21 0-4-1.79-4-4s1.79-4 4-4 4 1.79 4 4-1.79 4-4 4zm0-10.162c-3.4 0-6.162 2.762-6.162 6.162 0 3.4 2.762 6.162 6.162 6.162 3.4 0 6.162-2.762 6.162-6.162 0-3.4-2.762-6.162-6.162-6.162zM27 15c.552 0 1-.448 1-1s-.448-1-1-1-1 .448-1 1 .448 1 1 1z"/>
</svg>
