<?xml version="1.0" encoding="UTF-8"?>
<svg id="Capa_1" data-name="Capa 1" xmlns="http://www.w3.org/2000/svg" viewBox="0 0 1080 1080">
  <defs>
    <style>
      .cls-1 {
        fill: #ee7a23;
      }
    </style>
  </defs>
  <path class="cls-1" d="M362.23,440.47h62.32v-34.08c0-.86,2.81-10.27,3.48-12.1,11.24-30.5,51.07-40.46,75.41-18.45,16.9-16.37,45.02-15.22,62.32,0,24.39-22.79,66.84-10.99,75.14,21.65,31.46-8.69,63.35,8.95,64.09,42.97h31.16v-123.67c0-14.51,18.93-29.61,32.64-31.62,24.32-3.58,93.02-3.05,118.27-.49,24.85,2.52,38.33,22.34,36.05,46.72h76.93c14.29,0,32.89,21.35,32.11,36.05-5.43,96.99,7.3,201.98.11,298.04-1.25,16.65-13.29,39.84-32.22,39.84h-76.93c2.28,24.38-11.2,44.2-36.05,46.72-25.25,2.56-93.95,3.09-118.27-.49-13.72-2.02-32.64-17.11-32.64-31.62v-123.67h-31.16v51.61l-31.12,35.1.05,241.54c.75,10.32-7.26,15.39-16.6,16.51-56.64,6.78-126.81-5.02-184.89-.22-11.15-1.56-15.51-7.52-16.73-18.33l.08-237.27c-.63-2.61-41.53-20.88-47.47-25-19.76-13.73-18.49-42.19-20.77-63.95h-25.33v123.68c0,14.51-18.93,29.61-32.64,31.62-24.32,3.58-93.02,3.05-118.27.49-24.85-2.52-38.33-22.34-36.05-46.72h-76.93c-18.93,0-30.97-23.19-32.22-39.84-7.2-96.05,5.54-201.04.11-298.04-.78-14.7,17.82-36.05,32.11-36.05h76.93c-2.28-24.38,11.2-44.2,36.05-46.72,25.25-2.56,93.95-3.09,118.27.49,13.72,2.02,32.64,17.11,32.64,31.62v123.67ZM331.16,315.71h-124.87s.02,405.32.02,405.32h124.87s-.02-405.32-.02-405.32ZM892.05,315.7h-124.85s.02,405.32.02,405.32h124.85s-.02-405.32-.02-405.32ZM175.35,362.45h-78.1s.02,311.84.02,311.84h78.1s-.02-311.84-.02-311.84ZM923.01,362.45v311.83h78.13v-311.83h-78.13ZM642.67,909.83v-238.57c0-8.41,27.88-27.92,31.12-37.05l-.97-199.54c-5.16-7.71-13.13-10.49-21.9-6.4-15.4,7.2-4.97,62.43-8.66,78.97-3.33,14.88-27.71,14.79-30.57-5.6-4.13-29.47,3.05-66.49-.58-96.8-9.59-15.96-28.56-11.46-30.81,7.34-3.52,29.39,3.06,64.98-.37,95.06-7.6,16.88-27.99,12.82-30.57-5.6-4.13-29.48,3.04-66.49-.58-96.8-9.66-16.01-28.57-11.38-30.81,7.34-3.5,29.41,3.05,64.96-.37,95.06-7.6,16.88-27.99,12.82-30.57-5.6-4.13-29.48,3.04-66.49-.58-96.8-9.22-16.13-29.28-10.88-30.81,7.34l-.37,139.85c-3.98,17.83-30.74,10.93-30.74.42v-32.13c-6.15,3.1-15.51,6.17-15.68,14.5l14.76,96.45c19.22,15.38,45.96,20.8,63.24,38.03v237.6l2.92,2.92h152.88ZM424.55,471.63h-62.32v93.48h19.48c-2.25-24.37-11.07-43.89,10.76-62.27,10.96-9.23,30.35-14.4,32.08-31.21ZM704.99,471.63v93.48h31.16v-93.48h-31.16Z"/>
</svg>