<?xml version="1.0" encoding="UTF-8"?>
<svg id="Capa_1" data-name="Capa 1" xmlns="http://www.w3.org/2000/svg" viewBox="0 0 1080 1080">
  <defs>
    <style>
      .cls-1 {
        fill: #ee7a23;
      }
    </style>
  </defs>
  <path class="cls-1" d="M85.84,448.3c-.83-8.16-.8-23.57,0-31.75,8.23-84.45,92.64-134.58,169.22-93.69,87.08,46.49,107.98,191.62,14.93,241.55-82.64,44.34-175.62-31.8-184.15-116.1ZM189.91,364.75c-85.98,12.43-44.74,177.98,42.33,154.41,77.18-20.89,39.56-166.24-42.33-154.41Z"/>
  <path class="cls-1" d="M688.03,525.52c20.05,18.76,34.81,42.18,49.95,64.87,30.38,45.51,70.84,103.17,95.9,150.56,59.7,112.91-37.16,240.28-162.06,214.45-18.56-3.84-35.69-13.55-53.66-19.14-57.53-17.89-116.17-18.62-173.99-1.49-19.32,5.72-38.02,16.55-57.77,20.63-127.82,26.42-222.43-104.19-160.21-218.21,27.83-51,70.79-114.35,104.11-162.88,83.44-121.49,245.67-153.63,357.73-48.8ZM514.74,519.83c-133.59,10.39-175.95,163.24-245.03,255.32-27.69,72.79,30.71,142.23,107.67,124.54,11.8-2.71,22.21-9.36,33.64-13.02,62.58-20.06,119.49-26.36,184.68-13.84,57.69,11.08,112.95,54.8,166.75,8.79,53.17-45.46,34.19-93.58,3.53-143.69-27.67-45.21-59.84-98.31-90.71-140.81-38.35-52.8-93.84-82.48-160.54-77.29Z"/>
  <path class="cls-1" d="M445.67,123.89c92.62-9.45,158.16,82.47,153.41,168.45-7.25,131.25-153.49,209.66-244.42,98.95-72.56-88.35-31.56-254.89,91.01-267.39ZM449.37,179.89c-105.23,12.01-97.11,218.16,18.13,206.76,105.6-10.45,95.99-219.78-18.13-206.76Z"/>
  <path class="cls-1" d="M749.89,198.61c94.77-5.83,144.76,92.77,122.18,176.41-23.25,86.1-122.21,149.76-202.67,91.64-102.67-74.16-45.97-260.26,80.49-268.05ZM757.41,254.52c-105.58,1.5-116.2,196.37-5.18,176.12,86.04-15.69,93.99-177.38,5.18-176.12Z"/>
  <path class="cls-1" d="M917.86,443.24c117.09-11.68,158.17,125.19,89.92,207.63-80.63,97.39-230.96,55.44-218.08-78.16,6.14-63.66,64.4-123.11,128.17-129.47ZM921.57,499.25c-88.11,10.11-109.07,158.89-11.74,148.86,87-8.97,106.95-159.78,11.74-148.86Z"/>
</svg>