<?xml version="1.0" encoding="UTF-8"?>
<svg id="Capa_1" data-name="Capa 1" xmlns="http://www.w3.org/2000/svg" viewBox="0 0 1080 1080">
  <defs>
    <style>
      .cls-1 {
        fill: #ee7a23;
      }
    </style>
  </defs>
  <path class="cls-1" d="M678.91,834.45c-.61,36.91,2.2,73.87,7.61,110.29,1.62,10.91,13.31,60.02,11.75,65.25-3.48,11.65-20.29,15.54-27.05,3.07-5.25-9.7-9.72-41.48-11.84-53.96-2.84-16.67-4.73-33.47-6.36-50.31l-2.44-3.04h-51.18c-5.48,0-1.03,14.59-.93,17.38.39,10.95-.61,22.04-.06,32.96.72,14.44,5.84,39.69,3.62,52.83-2.72,16.14-25.77,17.12-29.03-1.83l-5.59-101.34h-54.84l-5.58,103.18c-2.56,16.92-28.26,15.86-29.18-1.68l5.52-101.5h-53.92l-2.44,3.04c-1.97,20.53-4.48,41.01-8.19,61.27-1.88,10.25-5.67,34.97-10.02,42.99-6.76,12.48-23.57,8.59-27.05-3.07-1.56-5.23,10.13-54.35,11.75-65.25,5.43-36.46,8.37-73.39,7.61-110.29H140.58c-17.98,0-38.67-23.22-39.31-41.12l-.05-606.96c1.52-23.75,20.89-42.54,44.77-42.97h789.82c23.12,1.5,41.47,19.81,42.96,42.97v605.18c.95,18.51-21.28,42.89-39.37,42.89h-260.48ZM848.91,805.2h86.83c3.69,0,11.81-6.78,12.89-10.87l-.57-611.99c-3.38-5.78-8.78-10.14-15.89-9.7l-790.77.9-10.05,10.05v610.73c1.08,4.09,9.2,10.87,12.89,10.87h86.83v-470.7c0-7.32,11.82-14.97,19.12-13.78h577.78c7.79-1.64,20.94,5.67,20.94,13.78v470.7ZM819.66,805.2v-452.42l-2.74-2.74H263.05l-2.74,2.74v452.42h138.92c-.64-48.26-9.02-98.73-22.08-145.18-1.56-5.55-8.33-32.53-11.98-33.72-59.54,4.94-82.85-68.27-27.27-93.55,133.36-3.51,267.82-1.67,401.43-.93,58.45,22.77,36.71,99.54-24.54,94.49-3.64,1.19-10.42,28.17-11.98,33.72-13.08,46.55-21.31,96.74-22.08,145.18h138.92ZM347.53,560.65c-20.67,9.58-12.86,35.03,8.74,36.17h367.43c27.13-3.03,26.33-34.19,5.52-36.6l-381.69.43ZM472.35,626.06h-74.95c11.76,37.49,21.06,75.99,25.59,115.16h58.49l-9.14-115.16ZM578.37,626.06h-76.77l9.14,115.16h58.49l9.14-115.16ZM682.57,626.06h-74.95l-9.14,115.16h58.49c4.53-39.17,13.83-77.67,25.59-115.16ZM483.32,770.47h-56.67c4.9,35.09,3.52,70.63,3.66,106.02h53.01v-106.02ZM512.57,770.47v106.02h54.84v-106.02h-54.84ZM653.32,770.47h-56.67v106.02h53.01c.13-35.39-1.24-70.93,3.66-106.02Z"/>
</svg>