<?xml version="1.0" encoding="UTF-8"?>
<svg id="Capa_1" data-name="Capa 1" xmlns="http://www.w3.org/2000/svg" viewBox="0 0 1080 1080">
  <defs>
    <style>
      .cls-1 {
        fill: #ee7a23;
      }
    </style>
  </defs>
  <path class="cls-1" d="M138.45,989.28c-14.4-6.83-8.06-26.96,5.9-26.96h74.99V381.74c0-5.57,14.31-9.76,19.32-9.33h643.9c4.81-1.72,20.99,5.06,20.99,9.33v580.57h74.99c5.47,0,11.38,5.83,14.32,10.11v16.85H138.45ZM878.28,399.44H244.62v562.87h43.82V435.67c0-.61,5.74-5.73,7.17-6.31h531.68c1.43.58,7.17,5.7,7.17,6.31v526.64h43.82V399.44ZM547.97,455.05h-234.25v507.26h234.25v-507.26ZM809.18,455.05h-234.25v507.26h234.25v-507.26Z"/>
  <path class="cls-1" d="M807.5,215.75h93.53c6.13,0,11.31,12.19,8.39,18.51-.4.87-6.23,6.77-6.71,6.77h-95.22v81.73c0,.48-5.6,5.55-6.77,6.71l-474.46.96c-2.71,1.36-10.87-6.98-10.87-7.67v-81.73h-101.96c-6.79,0-9.59-13.57-6.01-19.5.69-1.14,6.93-5.78,7.69-5.78h100.27v-80.05c0-3.86,9.65-10.87,14.24-9.35h463.6c4.59-1.52,14.24,5.49,14.24,9.35v80.05ZM782.22,153.39h-441.54v151.67h441.54v-151.67Z"/>
  <path class="cls-1" d="M368.89,853.17l124.2-.29c17.58,2.7,17.09,24.93.15,26.89-38.42,4.45-85.31-3.32-124.65-.13-16.65-4.65-16.68-22.54.3-26.47Z"/>
  <path class="cls-1" d="M365.48,908.75l129.3-.26c14.7,2.3,14.92,23.31.19,25.27l-129.81-.13c-12.15-4.44-11.47-20.68.32-24.87Z"/>
  <path class="cls-1" d="M365.48,799.21l129.3-.26c15.08,2.36,14.06,23.46.19,25.26l-128.06-.19c-13.9-2.15-13.94-22.04-1.42-24.82Z"/>
  <path class="cls-1" d="M628.41,853.16c38.33,3.03,87.06-5.45,124.17-.24,18.1,2.55,19.14,22,1.74,26.71h-126.2c-14.5-2.27-15.57-23.28.29-26.48Z"/>
  <path class="cls-1" d="M626.69,908.74l127.75-.39c14.15,1.18,16.72,20.32,3.29,25.26h-131.37c-12.96-4.65-12.48-20.46.32-24.87Z"/>
  <path class="cls-1" d="M626.69,799.2l129.3-.26c15.01,2.33,13.82,24.54-1.55,25.22l-128.07-.08c-12.38-4.78-12.57-20.69.32-24.88Z"/>
  <path class="cls-1" d="M635.6,230.91c5.17.47,3.63-4.88,8.85-7.15,9.04-3.92,20.43,2.15,19.5,12.63-.48,5.4-29.15,43.95-34.15,46.84-4.36,2.52-7.74,2.19-12.31.32-4.44-1.83-32.64-38.76-33.77-43.73-4.22-18.48,16.58-22.55,26.61-8.92v-49.71c0-3.3,7.39-8.88,11.11-9.26,4.13-.42,14.17,4.52,14.17,7.57v51.4Z"/>
  <path class="cls-1" d="M512.58,225.86v49.71c0,6.13-12.19,11.31-18.51,8.39-.87-.4-6.77-6.23-6.77-6.71v-51.4c-7.68,12.77-30.52,10.7-28.33-5.52.68-5.03,29.76-44.07,34.45-46.5,6.24-3.24,11.68-1.64,16.71,3.06,2.98,2.79,28.51,37.63,29.06,40.04,4.58,19.9-16.41,22.72-26.62,8.91Z"/>
</svg>