<?xml version="1.0" encoding="UTF-8"?>
<svg id="Capa_1" data-name="Capa 1" xmlns="http://www.w3.org/2000/svg" viewBox="0 0 1080 1080">
  <defs>
    <style>
      .cls-1 {
        fill: #ee7a23;
      }
    </style>
  </defs>
  <path class="cls-1" d="M536.08,56.77c7.28,3.95,13.06,7.66,14.65,16.49,1.76,9.76,1.76,61.56-.81,70.02-5.54,18.25-34.06,16.46-36.54-4.37-1.52-12.77-1.72-53.65.16-65.98,1.33-8.72,6.42-11.81,13.09-16.16h9.44Z"/>
  <path class="cls-1" d="M828.65,900.44c27.68-2.87,58.7-14.82,85.88-16.97,54.77-4.32,75.37,65.73,33.64,92.14-6.47,4.1-13.79,5.39-21.05,7.26-67.25,17.35-140.86,24.59-208.89,40.35-55.12.16-70.11-79.77-16.49-97.75,26.89-9.02,61.34-10.07,89.14-17.51l-41.3-212.18c-106.74-12.81-162.82-135.79-182.71-229.09-17.08-80.1-24.3-190.05-13.78-271.17,1.44-11.07,1.69-25.29,13.19-30.22l184.24-36.57c21.05-5.57,29.69,20.15,37.58,35.57,62.12,121.44,152.45,404.75,24.44,507.71-5.33,4.29-25.01,13.86-25.49,17.95l41.59,210.47ZM596.48,421.03h237.81c-15.95-88.36-46.17-173.94-87.98-253.05l-155.3,30.53c-6.43,74.27-4.42,148.63,5.47,222.52ZM838.06,458.78h-234.03c11.74,50.92,31.04,103.64,63.38,145.17,69.22,88.91,140.59,59.1,164.07-43.24,7.54-32.87,10.45-68.35,6.58-101.94ZM710.16,983.01c2.02,2.05,6.52,2.49,9.36,1.94,64.15-18.06,141.07-21.08,203.94-39.69,14.86-4.4,10.05-24.29-3.19-24.14l-209.41,41.8c-6.73,3.11-4.54,16.22-.71,20.1Z"/>
  <path class="cls-1" d="M321.19,694.95l-39.84,212.95c31.69,10.38,102.74,6.98,117.91,41.58,13.32,30.4-3.79,68.98-37.96,73.4-70.37-13.77-150.34-21.87-219.33-40.7-34.45-9.4-48.13-36.07-35.21-70.4,19.83-52.68,97.69-14.33,136.77-11.36l39.45-212.06c-15.99-9.32-30.21-19.04-42.28-33.29-100.41-118.5-21.56-380.81,47.17-502.1,5.77-10.19,11.08-25.07,24.54-24.64,45.75,7.82,91.45,16.29,136.91,25.58,12.89,2.63,55.78,8.3,61.99,17.27,1.97,2.84,3.08,7.8,3.83,11.27,4.3,19.94,5.33,55.91,5.93,77.11,2.57,91.12-8.71,209.08-45.03,292.96-27.36,63.18-79.92,137.55-154.84,142.41ZM230.33,477.65h229.31c4.66-6.4,5.88-16.45,7.62-24.47,13.9-64.14,16.75-133.96,14.11-199.2-.75-18.52-1.08-37.08-2-55.57l-153.9-30.19c-2.45-.25-3.12,1.32-4.32,2.94-9.02,12.14-22.9,47.53-29.41,63.07-32.08,76.57-57.15,160-61.4,243.41ZM449.27,515.4h-217.05c.27,48.75,27.05,141.71,87.76,141.72,59.44,0,113.67-91.65,129.28-141.72ZM362.01,983.01c3.83-3.88,6.02-16.99-.71-20.1l-209.41-41.8c-9.84-2.23-14.45,12.98-10.07,19.66l6.89,4.48,203.94,39.69c2.84.55,7.34.11,9.36-1.94Z"/>
  <path class="cls-1" d="M446.38,61.5c2.61-.13,8.02.84,10.35,1.99,7.9,3.88,35.19,49.13,33.74,57.92-2.39,14.49-20.27,21.53-31.62,11.67-3.71-3.22-25.38-38.74-27.54-44.26-4.7-11.99.94-26.61,15.08-27.31Z"/>
  <path class="cls-1" d="M622.01,61.48c8.91.45,16.19,10.38,16.17,18.89-.02,8.45-23.32,47.85-30.3,52.91-17.04,12.34-35.88-4.33-27.89-24.12,1.93-4.77,22.78-38.89,25.93-42.01,3.87-3.82,10.74-5.94,16.09-5.67Z"/>
  <path class="cls-1" d="M745.04,268.57c21.66-4.93,25.06,13.01,30.77,28.81,4.47,12.36,16.5,47.21,17.01,58.63.98,21.89-27.46,29.11-36.81,6.48-9.38-22.7-13.64-51.59-23.58-74.74-.49-7.3,5.02-17.45,12.62-19.18Z"/>
  <circle class="cls-1" cx="723.04" cy="216.41" r="18.76"/>
  <path class="cls-1" d="M437.51,230.75c10.78-1.16,19.03,7.86,20.74,18.05,2.79,16.65,1.23,51.37.54,69.47-.53,13.89-1.44,43.12-5.11,55.28-5.71,18.88-36.07,15.6-36.64-10.06-.33-14.77,3.59-33.97,3.99-49.02.56-20.77-2.95-50.66.03-69.8,1.22-7.79,9.03-13.14,16.45-13.93Z"/>
  <circle class="cls-1" cx="425.48" cy="441.98" r="18.82"/>
</svg>