<?xml version="1.0" encoding="UTF-8"?>
<svg id="Capa_1" data-name="Capa 1" xmlns="http://www.w3.org/2000/svg" viewBox="0 0 1080 1080">
  <defs>
    <style>
      .cls-1 {
        fill: #ee7a23;
      }
    </style>
  </defs>
  <path class="cls-1" d="M1001.09,650.18v55.81c-11.55,176.63-119.46,159.27-232.06,72.73-32.57-25.03-64.63-61.76-101.59-78.44-71.93-32.46-182.55-32.45-254.48,0-36.96,16.68-69.03,53.41-101.59,78.44-118.7,91.23-225.27,100.78-232.15-80.74-4.68-123.57,45.39-378.61,164.51-442.38,93.41-50.01,201.22,23.27,295.57,23.87s196.82-71.21,290.72-28.04c116.04,53.35,165.14,283.94,171.06,398.75ZM307.57,281.63c-126.49,12.36-174.4,240.32-183.25,342.46-4.46,51.48-16.83,194.03,69.81,172.43,80.98-20.19,133.44-107,209.26-138.21,78.93-32.48,191.58-33.28,270.5-.51,50.68,21.04,81.93,61.13,124.72,93.12,74.02,55.35,151.27,91.57,159.33-38.56,6.73-108.66-32.59-332.65-121.65-404.21-82.3-66.12-206.45,15-300.69,12.63-73.77-1.86-156.01-46.19-228.04-39.15Z"/>
  <path class="cls-1" d="M392.84,412.24c80.48,11.98,81.29,124.51-.23,133.57-8.79,79.84-121.52,81.06-132.28,1.65-82.47-13.1-82.46-123.75.55-135.18,8.92-79.31,122.49-79.28,131.95-.04ZM325.5,393.17c-33.98,1.84-15.4,41.24-29.18,55.45-11.89,12.27-31.09,2.53-44.78,11.03-12.42,7.71-14.29,24.1-4.78,34.78,14.4,16.17,34.61.82,48.67,14.34,12.88,12.38,2.27,30.67,11.02,44.79,7.48,12.06,22.89,13.77,34.5,6.3,18.29-11.77,3.46-35.6,15.59-49.22,10.75-12.07,31.46-1.67,46.35-11.27,14.47-9.32,12.38-33.64-3.02-41.03-14.42-6.91-30.84,3.58-43.41-10.6-8.28-9.34-4.19-19.52-5.5-30.5-1.6-13.37-11.04-24.85-25.45-24.07Z"/>
  <circle class="cls-1" cx="739.97" cy="398.04" r="40.14"/>
  <circle class="cls-1" cx="658.49" cy="479.5" r="40.09"/>
  <circle class="cls-1" cx="821.37" cy="479.46" r="40.05"/>
  <circle class="cls-1" cx="739.96" cy="561.06" r="40.02"/>
</svg>