<?xml version="1.0" encoding="UTF-8"?>
<svg id="Capa_1" data-name="Capa 1" xmlns="http://www.w3.org/2000/svg" viewBox="0 0 1080 1080">
  <defs>
    <style>
      .cls-1 {
        fill: #ee7a23;
      }
    </style>
  </defs>
  <path class="cls-1" d="M559.6,348.95v26.08h348.06c25.35,0,56.26,34,56.22,59.53l-.7,519.3c-4.03,12.9-32.9,7.55-43.89,6.23-113.45-13.61-206.49-102.13-225.49-214.68-5.83-34.54,1.07-65.37-19.7-96.05-8.32-12.29-22.34-24.37-36.24-29.79v148.35c30.17,3.06,35.35,47.23,8.7,60.06-1.55.75-8.65,3.52-9.52,3.52h-90.48v103.52c0,13.84-18.62,26.78-31.8,27.03s-33.41-12.42-33.41-27.03v-325.24h-26.08v339.1h-26.08v-26.08h-104.34v26.08h-26.08v-339.1h-26.08v325.24c0,4.65-6.88,15.41-10.61,18.74-19.61,17.52-51.59,5.57-54.42-20.55l-.08-322.43c-.5-1.83-11.7-.41-13.18-13.19l.11-247.58c-31.97-6.75-52.35-38.67-29.41-67.09,61.67-37.66,123.08-83.71,185.98-118.88,17.72-9.91,28.57-14.94,49.22-7.1l187.91,125.11c23.54,26.68,4.42,63.05-28.59,66.9ZM378.22,179.78c-2.79.45-5.72,1.91-8.26,3.17l-181.97,114.74c-10.57,7.52-7.66,19.16,3.6,23.91l364,1.34c10.57-.01,21.27-9.91,15.19-20.26l-184.96-123.22c-2.58-.47-5.07-.09-7.62.32ZM533.51,348.95H220.5v234.76h52.17v-116.56c0-52.19,60.86-94.56,110.12-92.19,44.63,2.15,98.55,45.31,98.55,92.19v116.56h52.17v-234.76ZM455.26,583.7v-114.93c0-32.37-40.15-65.04-70.94-67.63-36.61-3.08-85.56,28.85-85.56,67.63v114.93h156.51ZM611.76,401.11h-52.17v105.97h52.17v-105.97ZM716.1,401.11h-78.25v110.86c29.29,4.93,54.83,21.79,78.25,39.13v-149.98ZM833.48,401.11h-91.3v178.51c0,1.41,13.18,19.33,15.52,23.6,20.71,37.83,19.82,59.35,23.54,100.36,2,22.11,7.57,42.43,16.37,62.7h35.87v-365.18ZM937.82,857.59v-424.68c0-10.63-21.14-31.79-31.79-31.79h-46.46v366.81c25.2,2.49,34.12,35.74,16.96,53.64-5.43,5.66-13.46,6.26-18.59,11.55,24.8,14.19,51.13,22.56,79.88,24.47ZM937.82,883.67c-81.11-2.5-154.43-60.03-175.61-138.22-13.72-50.65-.71-85.44-30.75-135.53-36.44-60.75-102.82-84.63-171.86-78.38v52.17h51.35c25.39,0,61.47,22.54,77.48,41.53,36.49,43.3,22.47,83.3,34.67,133.25,24.13,98.8,113.42,171.22,214.72,177.36v-52.17ZM246.58,609.79h-13.04v326.13h13.04v-326.13ZM429.17,609.79h-104.34v26.08h104.34v-26.08ZM520.47,609.79h-13.04v326.13h13.04v-326.13ZM546.55,609.79v156.51h65.21v-156.51h-65.21ZM429.17,661.96h-104.34v26.08h104.34v-26.08ZM429.17,714.13h-104.34v26.08h104.34v-26.08ZM429.17,766.29h-104.34v26.08h104.34v-26.08ZM546.55,805.42h87.22c1.19,0,5.02-5.17,4.16-7.25.1-1.7-3.34-5.79-4.16-5.79h-87.22v13.04ZM823.7,805.42c1.34.86,27.09,0,31.79,0,1.19,0,5.02-5.17,4.16-7.25.1-1.7-3.34-5.79-4.16-5.79h-39.94v2.42c3.58,1.08,7.58,10.25,8.15,10.62ZM429.17,818.46h-104.34v26.08h104.34v-26.08ZM429.17,870.63h-104.34v26.08h104.34v-26.08Z"/>
</svg>