<?xml version="1.0" encoding="UTF-8"?>
<svg id="Capa_1" data-name="Capa 1" xmlns="http://www.w3.org/2000/svg" viewBox="0 0 1080 1080">
  <defs>
    <style>
      .cls-1 {
        fill: #ee7a23;
      }
    </style>
  </defs>
  <path class="cls-1" d="M539.96,373.2l173.47,255.21c51.46,9.27,74.79,45.42,130.57,41.88,49.32-3.13,86.7-50,140.33-43.48,27.31,3.32,27.83,39.43-2.03,43.16-38.53,4.82-37.12,7.03-70.03,23.04-34.03,16.55-59.42,22.18-98.03,18.74-61.69-5.5-83.93-58.88-158.96-38.1-18.82,5.21-31.7,16.86-48.65,24.61-39.03,17.85-88.24,19.07-128.03,2.6-27.69-11.46-40.45-28.35-74.2-30.75-65.56-4.65-83.36,36.71-138.73,41.64-60.93,5.43-70.35-8.96-119.02-31.41-18.41-8.49-28.61-7.71-47.26-10.16-43.37-5.71-23.23-56.96,15.88-41.5l275.33-160.42c2.29-3.84-37.7-67.51-42.43-78.54-18.27-42.57-5.86-86.12,32.78-111.2l316.91-150.41c90.94-34.29,147.6,83.05,67.88,133.22l-225.77,111.87ZM753.12,173.86c-6.04-6.55-18.88-11.33-27.78-10.5l-326.96,154.37c-20.75,19.65-19.87,37.13-7.97,61.42,20.34,41.5,73.55,89.91,19.89,126.73-72.45,49.72-159.03,89.05-233.4,136.89l-3.26,5.6c13.73,6.76,26.4,15.18,41.56,18.86,72.76,17.66,100.5-36.86,167.36-40.59,73.02-4.07,103.15,48.61,168.36,43.62,41.78-3.2,66.81-36.05,107.91-40.61,3.03-2.36,1.16-2.2.28-4.32-2.63-6.36-11.44-17.41-15.75-23.9-45.62-68.75-94.76-135.31-140.64-203.9-11.94-20.36-6.58-44.47,12.81-57.7l235.34-119.11c12.96-12.29,14.57-33.5,2.25-46.86Z"/>
  <path class="cls-1" d="M89.89,757.74c20.66-4.63,55.25,4.97,74.26,14.01,15.3,7.28,27.23,18.2,44.07,23.26,78.64,23.64,100.44-32.59,166.33-37.76,29.08-2.28,58.58,1.66,84.93,14.22,13.63,6.49,26.43,17.34,40.92,22.45,79.14,27.86,118.62-43.54,202.89-36.56,67.78,5.62,94.38,63.59,172.35,35.65,18.06-6.47,34.54-20.04,52.46-26.75,19.1-7.15,76.93-21.74,76.93,11.86,0,22.79-20.77,18.73-34.15,21.02-56.32,9.64-79.25,47.99-146.74,43.31-74.02-5.14-104.77-71.58-189.22-30.76-41.69,20.15-58.44,34.8-109.78,30.75-54.99-4.34-83.26-46.1-138.74-43.62-48.06,2.14-75.92,39.74-128.64,43.63-54.18,4-68.33-12.37-111.8-32.7-20.72-9.69-33.63-7.7-54.04-11.3-21.86-3.86-20.97-36.45-2.03-40.7Z"/>
  <path class="cls-1" d="M982.96,453.46c0,83.35-67.57,150.92-150.92,150.92s-150.92-67.57-150.92-150.92,67.57-150.92,150.92-150.92,150.92,67.57,150.92,150.92ZM940.66,453.43c0-59.97-48.62-108.59-108.59-108.59s-108.59,48.62-108.59,108.59,48.62,108.59,108.59,108.59,108.59-48.62,108.59-108.59Z"/>
</svg>