<?xml version="1.0" encoding="UTF-8"?>
<svg id="Capa_1" xmlns="http://www.w3.org/2000/svg" version="1.1" viewBox="0 0 714.64 282.73">
  <!-- Generator: Adobe Illustrator 29.5.0, SVG Export Plug-In . SVG Version: 2.1.0 Build 137)  -->
  <defs>
    <style>
      .st0 {
        fill: #3a3a3c;
      }

      .st1 {
        fill: #009779;
      }

      .st2 {
        fill: #a8d7d2;
      }

      .st3 {
        fill: #5abcb3;
      }

      .st4 {
        fill: #036450;
      }
    </style>
  </defs>
  <g>
    <path class="st4" d="M63.33,75.67l-7.6-7.6c-15.15,16.89-24.74,38.78-26,62.89h10.76c1.24-21.15,9.63-40.36,22.85-55.29"/>
    <path class="st4" d="M223.36,130.97h10.76c-1.22-23.19-10.08-44.35-24.24-60.96l-7.61,7.6c12.24,14.63,19.91,33.13,21.09,53.36"/>
    <path class="st4" d="M194.86,69.82l7.59-7.6c-17.17-16.35-39.96-26.74-65.16-28.06v10.75c22.24,1.29,42.35,10.5,57.56,24.9"/>
    <path class="st4" d="M40.49,141.72h-10.76c1.31,25.2,11.72,47.99,28.06,65.17l7.6-7.6c-14.41-15.22-23.61-35.33-24.91-57.57"/>
    <path class="st4" d="M126.54,44.91v-10.75c-24.27,1.27-46.28,10.98-63.22,26.3l7.61,7.6c14.97-13.39,34.3-21.9,55.62-23.15"/>
    <path class="st4" d="M223.36,141.72c-1.25,21.32-9.77,40.66-23.15,55.63l7.59,7.6c15.33-16.94,25.04-38.96,26.31-63.24h-10.76Z"/>
    <path class="st4" d="M137.3,227.79v10.75c24.12-1.26,46.01-10.85,62.9-26.01l-7.6-7.6c-14.92,13.22-34.14,21.62-55.3,22.85"/>
    <path class="st4" d="M73.19,206.7l-7.6,7.6c16.61,14.16,37.77,23.03,60.95,24.24v-10.75c-20.22-1.18-38.73-8.85-53.35-21.09"/>
    <path class="st1" d="M201.17,136.35c0,25.83-14.24,48.36-35.26,60.26l4.56,9.79c24.69-13.64,41.45-39.92,41.45-70.06,0-10.19-1.99-19.91-5.48-28.87l-9.77,4.55c2.86,7.58,4.49,15.75,4.49,24.32"/>
    <path class="st1" d="M131.92,67.11c25.79,0,48.29,14.19,60.21,35.16l9.79-4.56c-13.65-24.62-39.9-41.35-70-41.35-10.16,0-19.85,1.98-28.8,5.45l4.54,9.77c7.56-2.84,15.72-4.47,24.26-4.47"/>
    <path class="st1" d="M131.92,205.59c-25.86,0-48.41-14.27-60.3-35.32l-9.79,4.57c13.63,24.71,39.93,41.51,70.09,41.51,10.15,0,19.84-1.98,28.77-5.44l-4.55-9.77c-7.55,2.83-15.69,4.46-24.22,4.46"/>
    <path class="st1" d="M62.68,136.35c0-25.82,14.23-48.34,35.24-60.24l-4.56-9.79c-24.67,13.64-41.44,39.91-41.44,70.03,0,10.13,1.97,19.78,5.42,28.71l9.77-4.55c-2.81-7.53-4.43-15.65-4.43-24.16"/>
    <path class="st3" d="M137.3,182.9v10.81c27.5-2.55,49.43-24.49,51.99-51.99h-10.81c-2.48,21.56-19.62,38.7-41.18,41.18"/>
    <path class="st3" d="M85.38,141.72h-10.82c2.56,27.49,24.49,49.43,51.98,51.99v-10.81c-21.56-2.48-38.69-19.62-41.16-41.17"/>
    <path class="st3" d="M137.3,79v10.81c21.56,2.48,38.69,19.61,41.18,41.16h10.81c-2.56-27.49-24.49-49.42-51.99-51.97"/>
    <path class="st3" d="M126.54,89.81v-10.81c-27.49,2.56-49.42,24.48-51.98,51.97h10.82c2.48-21.55,19.61-38.68,41.16-41.16"/>
    <path class="st2" d="M110.68,109.5l7.68,7.7c3.84-2.73,8.5-4.38,13.56-4.38,12.96,0,23.51,10.56,23.51,23.53,0,5.07-1.65,9.75-4.39,13.59l7.69,7.7c4.66-5.86,7.46-13.25,7.46-21.3,0-18.9-15.37-34.28-34.26-34.28-8.03,0-15.39,2.79-21.24,7.43"/>
    <path class="st2" d="M131.92,159.87c-12.97,0-23.52-10.55-23.52-23.52,0-4.01,1.1-7.73,2.87-11.03l-7.9-7.91c-3.62,5.43-5.73,11.94-5.73,18.94,0,18.9,15.38,34.27,34.27,34.27,6.97,0,13.46-2.1,18.88-5.7l-7.89-7.91c-3.3,1.76-6.99,2.85-10.99,2.85"/>
  </g>
  <g>
    <path class="st0" d="M490.1,115.34c-1.23,26.82,1.63,55.06.04,81.72-.98,16.46-5.21,33.91-19.79,43.36-16.25,10.53-42.22,10.1-59.75,2.96-3.04-1.24-15.66-7.39-14.66-11.08l12.45-16.74c7.02,5.06,14.17,10.82,23.15,11.92,26.43,3.23,37.62-8.85,35.48-34.96-1.52-.07-1.25,1.91-2.47,3.02-14.82,13.48-40.13,12.4-55.17-.04-21.1-17.46-21.04-55.71,0-73.12,16.5-13.65,45.52-13.04,58.64,4.99v-12.03h22.08ZM468.51,158.99c0-14.48-11.75-26.22-26.24-26.22s-26.24,11.74-26.24,26.22,11.75,26.22,26.24,26.22,26.24-11.74,26.24-26.22Z"/>
    <path class="st0" d="M381.78,204.54h-20.06v-12.03c-11.41,13.18-27.19,17.34-43.82,11.21-7.73-2.85-16.1-10.24-17.28-18.82-4.87-35.5,35.82-37.05,61.1-36.49.08-23.88-30.05-21.51-43.63-9.98l-11.46-11.42c15.87-18.16,60.65-20.84,71.63,3.37,1.01,2.22,3.51,10.52,3.51,12.52v61.64ZM359.72,164.45h-15.55c-2.44,0-10.3,2.07-12.91,3.14-16.1,6.58-8.44,21.7,6.9,22,15.41.29,23.9-10.1,21.56-25.14Z"/>
    <path class="st0" d="M628.51,204.54h-21.56l-1.5-1.5v-87.7h22.07l.5,13.04c9.19-20.55,43.78-20.52,54.47-1.32,2.17,3.9,5.21,13.6,5.21,17.85v58.13l-1.5,1.5h-20.06l-1.5-1.5v-53.12c0-.96-2.17-7.96-2.81-9.22-4.05-7.96-15.55-9.35-22.97-5.51-4.66,2.41-10.33,10.53-10.33,15.73v53.62Z"/>
    <path class="st0" d="M530.22,115.34v56.63c0,.76,2.17,6.14,2.8,7.23,5.75,9.95,22.31,8.16,28.73-.78,2.13-2.96,4.58-10,4.58-13.47v-49.61h22.07v89.2h-21.06v-14.03l-8.53,10.02c-14.68,10.39-39.09,7.06-47.52-9.64-1.02-2.02-4.13-11.16-4.13-12.91v-62.64h23.07Z"/>
    <rect class="st0" x="265.44" y="64.23" width="23.07" height="140.31"/>
  </g>
</svg>