<?xml version="1.0" encoding="UTF-8"?>
<svg id="Capa_1" xmlns="http://www.w3.org/2000/svg" version="1.1" viewBox="0 0 714.64 282.73">
  <!-- Generator: Adobe Illustrator 29.5.0, SVG Export Plug-In . SVG Version: 2.1.0 Build 137)  -->
  <defs>
    <style>
      .st0 {
        fill: #00b451;
      }

      .st1 {
        fill: #222;
      }

      .st2 {
        fill: #00754a;
      }

      .st3 {
        fill: #93d500;
      }

      .st4 {
        fill: #009845;
      }
    </style>
  </defs>
  <path class="st2" d="M86.37,69.34l-9.03-9.02c-17.97,20.05-29.36,46.03-30.86,74.66h12.77c1.47-25.11,11.43-47.92,27.12-65.64"/>
  <path class="st2" d="M276.32,134.98h12.76c-1.44-27.52-11.97-52.64-28.77-72.36l-9.03,9.02c14.52,17.36,23.63,39.33,25.04,63.34"/>
  <path class="st2" d="M242.49,62.39l9.01-9.03c-20.38-19.4-47.43-31.74-77.34-33.3v12.76c26.4,1.54,50.26,12.47,68.33,29.56"/>
  <path class="st2" d="M59.25,147.74h-12.77c1.56,29.92,13.91,56.97,33.31,77.35l9.03-9.02c-17.1-18.06-28.03-41.93-29.57-68.33"/>
  <path class="st2" d="M161.39,32.82v-12.76c-28.81,1.51-54.95,13.03-75.05,31.22l9.03,9.02c17.77-15.89,40.72-26,66.02-27.48"/>
  <path class="st2" d="M276.32,147.74c-1.48,25.3-11.59,48.27-27.48,66.04l9.02,9.02c18.19-20.1,29.72-46.24,31.23-75.06h-12.76Z"/>
  <path class="st2" d="M174.16,249.9v12.76c28.63-1.49,54.61-12.88,74.66-30.86l-9.02-9.02c-17.72,15.69-40.53,25.66-65.64,27.12"/>
  <path class="st2" d="M98.06,224.87l-9.02,9.02c19.71,16.8,44.83,27.34,72.35,28.78v-12.76c-24.01-1.41-45.97-10.52-63.33-25.04"/>
  <path class="st4" d="M249.98,141.36c0,30.66-16.9,57.4-41.86,71.53l5.41,11.62c29.3-16.18,49.21-47.38,49.21-83.15,0-12.1-2.36-23.63-6.5-34.28l-11.6,5.41c3.39,9,5.34,18.7,5.34,28.87"/>
  <path class="st4" d="M167.79,59.18c30.62,0,57.32,16.85,71.46,41.73l11.63-5.41c-16.2-29.22-47.37-49.07-83.09-49.07-12.06,0-23.57,2.35-34.19,6.47l5.39,11.6c8.98-3.38,18.65-5.31,28.8-5.31"/>
  <path class="st4" d="M167.79,223.55c-30.69,0-57.46-16.93-71.58-41.92l-11.63,5.41c16.18,29.34,47.4,49.27,83.2,49.27,12.05,0,23.54-2.34,34.15-6.46l-5.41-11.6c-8.96,3.36-18.62,5.29-28.75,5.29"/>
  <path class="st4" d="M85.59,141.36c0-30.64,16.89-57.38,41.83-71.51l-5.41-11.62c-29.29,16.19-49.19,47.37-49.19,83.13,0,12.02,2.33,23.48,6.43,34.08l11.6-5.4c-3.35-8.95-5.26-18.58-5.26-28.67"/>
  <path class="st0" d="M174.16,196.62v12.83c32.64-3.03,58.68-29.07,61.72-61.71h-12.84c-2.94,25.59-23.29,45.94-48.88,48.88"/>
  <path class="st0" d="M112.53,147.74h-12.84c3.03,32.64,29.07,58.67,61.7,61.71v-12.84c-25.59-2.94-45.93-23.28-48.86-48.87"/>
  <path class="st0" d="M174.16,73.29v12.83c25.59,2.94,45.93,23.28,48.88,48.86h12.84c-3.04-32.63-29.08-58.66-61.72-61.69"/>
  <path class="st0" d="M161.39,86.12v-12.84c-32.63,3.04-58.66,29.07-61.7,61.69h12.84c2.94-25.58,23.28-45.91,48.86-48.85"/>
  <path class="st3" d="M142.57,109.49l9.12,9.13c4.56-3.24,10.09-5.19,16.1-5.19,15.39,0,27.91,12.53,27.91,27.93,0,6.02-1.96,11.56-5.22,16.13l9.13,9.14c5.53-6.95,8.86-15.72,8.86-25.27,0-22.44-18.25-40.7-40.68-40.7-9.53,0-18.27,3.32-25.21,8.82"/>
  <path class="st3" d="M167.79,169.28c-15.4,0-27.92-12.52-27.92-27.92,0-4.76,1.31-9.17,3.41-13.1l-9.38-9.38c-4.3,6.44-6.81,14.17-6.81,22.48,0,22.44,18.26,40.69,40.69,40.69,8.28,0,15.98-2.5,22.41-6.77l-9.37-9.38c-3.91,2.09-8.3,3.39-13.04,3.39"/>
  <path class="st1" d="M361.44,138.92h-21.97v-22.64h21.97v-15.09c0-29.51,6.66-48.82,39.72-48.82,5.76,0,11.31.44,16.86,1.55l-1.78,22.64c-3.77-.89-7.32-1.56-11.09-1.56-14.87,0-17.09,10.21-17.09,21.97v19.3h24.63v22.64h-24.63v83.87h-26.62v-83.87ZM443.31,64.14c9.76,0,17.31,6.87,17.31,15.98s-7.54,15.97-17.31,15.97-16.86-7.54-16.86-15.97,7.1-15.98,16.86-15.98M430,116.28h26.62v106.51h-26.62v-106.51Z"/>
  <rect class="st1" x="483.91" y="55.04" width="26.62" height="167.74"/>
  <path class="st1" d="M554.68,64.14c9.76,0,17.3,6.87,17.3,15.98s-7.54,15.97-17.3,15.97-16.86-7.54-16.86-15.97,7.1-15.98,16.86-15.98M541.6,116.28h26.63v106.51h-26.63v-106.51Z"/>
  <path class="st1" d="M665.4,208.14h-.67c-7.55,11.98-19.97,17.31-34.17,17.31-19.75,0-38.83-10.88-38.83-31.95,0-34.61,40.38-37.05,67.01-37.05h6.66v-2.89c0-13.09-10.21-19.97-24.41-19.97-11.09,0-21.31,4.44-28.4,11.09l-13.98-13.98c11.76-11.99,28.4-17.09,45.27-17.09,45.48,0,45.48,32.84,45.48,47.93v61.24h-23.96v-14.64ZM663.85,175.08h-5.55c-14.64,0-39.94,1.11-39.94,16.42,0,9.76,9.98,13.98,18.64,13.98,18.19,0,26.85-9.54,26.85-24.41v-5.99Z"/>
</svg>