<?xml version="1.0" encoding="UTF-8"?>
<svg id="Blueprint" xmlns="http://www.w3.org/2000/svg" version="1.1" viewBox="0 0 634.21 216">
  <!-- Generator: Adobe Illustrator 29.5.0, SVG Export Plug-In . SVG Version: 2.1.0 Build 137)  -->
  <defs>
    <style>
      .st0 {
        fill: #ee7a23;
      }
    </style>
  </defs>
  <path class="st0" d="M227.64,104.76l-47.25-4.99c1.79-8.24,4.37-14.74,7.72-19.48,3.37-4.73,8.21-8.85,14.52-12.33,4.52-2.51,10.78-4.46,18.71-5.84,7.91-1.36,16.51-2.05,25.74-2.05,14.82,0,26.74.83,35.71,2.49,8.99,1.66,16.5,5.13,22.48,10.39,4.2,3.64,7.53,8.8,9.95,15.48,2.44,6.69,3.65,13.05,3.65,19.14v56.95c0,6.06.39,10.84,1.16,14.29.78,3.44,2.44,7.81,5.03,13.15h-46.39c-1.88-3.3-3.07-5.82-3.66-7.58-.53-1.75-1.12-4.48-1.68-8.21-6.47,6.24-12.92,10.7-19.32,13.37-8.72,3.57-18.9,5.34-30.51,5.34-15.36,0-27.04-3.56-35.02-10.66-7.98-7.14-11.98-15.93-11.98-26.38,0-9.78,2.87-17.87,8.63-24.16,5.74-6.33,16.36-11.01,31.84-14.08,18.52-3.73,30.56-6.34,36.05-7.85,5.49-1.48,11.32-3.45,17.48-5.89,0-6.09-1.24-10.31-3.74-12.75-2.52-2.42-6.93-3.66-13.24-3.66-8.1,0-14.18,1.31-18.23,3.91-3.15,2.04-5.7,5.84-7.65,11.42M270.5,130.75c-6.79,2.44-13.87,4.58-21.23,6.45-10.05,2.68-16.41,5.3-19.1,7.9-2.72,2.66-4.1,5.68-4.1,9.1,0,3.88,1.36,7.06,4.05,9.54,2.74,2.48,6.71,3.71,11.96,3.71,5.53,0,10.64-1.33,15.42-4.01,4.7-2.68,8.07-5.94,10.05-9.77,1.98-3.84,2.95-8.85,2.95-15.01v-7.9Z"/>
  <path class="st0" d="M472.98,191.97h-46.14v-20.88c-6.9,8.57-13.84,14.71-20.85,18.35-6.99,3.65-15.59,5.45-25.78,5.45-13.62,0-24.29-4.05-32.03-12.2-7.73-8.14-11.6-20.64-11.6-37.58V62.98h49.68v70.93c0,8.13,1.5,13.85,4.49,17.25,2.99,3.4,7.21,5.12,12.63,5.12,5.92,0,10.75-2.26,14.53-6.82,3.77-4.53,5.65-12.66,5.65-24.41v-62.07h49.42v128.99Z"/>
  <path class="st0" d="M484.8,156.17l49.11-4.63c1.99,5.82,4.85,10,8.48,12.52,3.66,2.51,8.53,3.75,14.57,3.75,6.65,0,11.78-1.41,15.42-4.25,2.84-2.09,4.24-4.73,4.24-7.87,0-3.58-1.85-6.31-5.55-8.27-2.69-1.38-9.78-3.07-21.25-5.09-17.19-3-29.11-5.77-35.79-8.32-6.68-2.52-12.32-6.84-16.88-12.92-4.6-6.06-6.85-12.99-6.85-20.73,0-8.5,2.46-15.84,7.4-21.99,4.94-6.15,11.75-10.74,20.4-13.75,8.68-3.05,20.3-4.57,34.88-4.57,15.38,0,26.74,1.17,34.05,3.52,7.35,2.35,13.47,6.01,18.36,10.94,4.9,4.95,8.94,11.63,12.21,20.03l-46.91,4.63c-1.22-4.14-3.23-7.16-6.07-9.12-3.87-2.6-8.56-3.88-14.06-3.88s-9.66,1.01-12.24,2.98c-2.54,1.97-3.81,4.37-3.81,7.22,0,3.14,1.61,5.54,4.87,7.17,3.22,1.59,10.26,3.07,21.1,4.34,16.46,1.86,28.68,4.44,36.68,7.77,8.03,3.32,14.15,8.06,18.41,14.18,4.27,6.16,6.39,12.9,6.39,20.27s-2.27,14.69-6.74,21.73c-4.5,7.03-11.59,12.65-21.26,16.79-9.68,4.18-22.87,6.25-39.54,6.25-23.58,0-40.36-3.33-50.36-10.06-10.01-6.74-16.43-16.29-19.26-28.66"/>
  <path class="st0" d="M146.86,72.33c-7.74-8.18-18.34-12.26-31.76-12.26-9.09,0-16.92,1.49-23.55,4.5-6.66,2.99-13.36,7.97-20.07,14.93V13.91l-49.43,22.82v155.25h49.43v-61.95c0-11.73,1.88-19.88,5.59-24.4,3.73-4.54,8.59-6.8,14.57-6.8,5.45,0,9.64,1.66,12.66,5.02,2.99,3.36,4.49,9.1,4.49,17.2v70.92h49.67v-81.98c0-16.91-3.85-29.47-11.59-37.66"/>
</svg>